<svg xmlns="http://www.w3.org/2000/svg" xmlns:xlink="http://www.w3.org/1999/xlink" width="48" zoomAndPan="magnify" viewBox="0 0 36 36.000001" height="48" preserveAspectRatio="xMidYMid meet" version="1.0"><path fill="#872db5" d="M 20.265625 4.203125 L 10.996094 4.203125 C 10.53125 4.203125 10.082031 4.292969 9.652344 4.46875 C 9.226562 4.648438 8.847656 4.902344 8.519531 5.230469 C 8.1875 5.558594 7.9375 5.9375 7.757812 6.367188 C 7.582031 6.792969 7.492188 7.242188 7.492188 7.707031 L 7.492188 28.722656 C 7.492188 29.1875 7.582031 29.632812 7.757812 30.0625 C 7.9375 30.492188 8.1875 30.871094 8.519531 31.199219 C 8.847656 31.527344 9.226562 31.78125 9.652344 31.957031 C 10.082031 32.136719 10.53125 32.226562 10.996094 32.226562 L 25.003906 32.226562 C 25.46875 32.226562 25.917969 32.136719 26.347656 31.957031 C 26.773438 31.78125 27.152344 31.527344 27.480469 31.199219 C 27.8125 30.871094 28.0625 30.492188 28.242188 30.0625 C 28.417969 29.632812 28.507812 29.1875 28.507812 28.722656 L 28.507812 12.445312 C 28.507812 11.980469 28.324219 11.535156 27.996094 11.207031 L 21.503906 4.714844 C 21.160156 4.375 20.746094 4.203125 20.265625 4.203125 Z M 20.628906 10.332031 L 20.628906 6.832031 L 25.882812 12.085938 L 22.378906 12.085938 C 22.144531 12.085938 21.921875 12.039062 21.707031 11.949219 C 21.492188 11.863281 21.304688 11.734375 21.140625 11.570312 C 20.976562 11.40625 20.847656 11.21875 20.761719 11.003906 C 20.671875 10.789062 20.628906 10.566406 20.628906 10.332031 Z M 15.117188 21.460938 C 14.945312 21.621094 14.742188 21.699219 14.503906 21.695312 C 14.269531 21.691406 14.066406 21.605469 13.902344 21.4375 C 13.734375 21.269531 13.648438 21.070312 13.644531 20.832031 C 13.640625 20.597656 13.714844 20.394531 13.875 20.21875 L 17.378906 16.71875 C 17.550781 16.546875 17.757812 16.460938 18 16.460938 C 18.242188 16.460938 18.449219 16.546875 18.621094 16.71875 L 22.125 20.21875 C 22.285156 20.394531 22.359375 20.597656 22.355469 20.832031 C 22.351562 21.070312 22.265625 21.269531 22.097656 21.4375 C 21.933594 21.605469 21.730469 21.691406 21.496094 21.695312 C 21.257812 21.699219 21.054688 21.621094 20.882812 21.460938 L 18.875 19.453125 L 18.875 26.09375 C 18.875 26.335938 18.789062 26.542969 18.621094 26.714844 C 18.449219 26.886719 18.242188 26.972656 18 26.972656 C 17.757812 26.972656 17.550781 26.886719 17.378906 26.714844 C 17.210938 26.542969 17.125 26.335938 17.125 26.09375 L 17.125 19.453125 Z M 15.117188 21.460938 " fill-opacity="1" fill-rule="nonzero"/></svg>