<svg xmlns="http://www.w3.org/2000/svg" xmlns:xlink="http://www.w3.org/1999/xlink" width="48" zoomAndPan="magnify" viewBox="0 0 36 36.000001" height="48" preserveAspectRatio="xMidYMid meet" version="1.0"><path fill="#872db5" d="M 24.304688 10.207031 L 23.304688 10.207031 L 23.304688 4.203125 L 21.300781 4.203125 L 21.300781 10.207031 L 15.296875 10.207031 L 15.296875 4.203125 L 13.296875 4.203125 L 13.296875 10.207031 L 12.296875 10.207031 C 12.03125 10.207031 11.777344 10.257812 11.53125 10.359375 C 11.285156 10.460938 11.070312 10.605469 10.882812 10.792969 C 10.691406 10.980469 10.546875 11.199219 10.445312 11.441406 C 10.34375 11.6875 10.292969 11.945312 10.292969 12.210938 L 10.292969 18.214844 C 10.296875 18.695312 10.339844 19.175781 10.425781 19.652344 C 10.515625 20.125 10.644531 20.589844 10.816406 21.042969 C 10.984375 21.492188 11.195312 21.925781 11.445312 22.339844 C 11.695312 22.753906 11.980469 23.140625 12.300781 23.503906 C 12.621094 23.867188 12.96875 24.195312 13.347656 24.496094 C 13.726562 24.792969 14.132812 25.054688 14.558594 25.28125 C 14.984375 25.507812 15.429688 25.695312 15.890625 25.839844 C 16.351562 25.984375 16.820312 26.089844 17.300781 26.148438 L 17.300781 32.226562 L 19.300781 32.226562 L 19.300781 26.148438 C 19.78125 26.089844 20.25 25.984375 20.710938 25.839844 C 21.171875 25.695312 21.617188 25.507812 22.042969 25.28125 C 22.46875 25.054688 22.871094 24.792969 23.253906 24.496094 C 23.632812 24.195312 23.980469 23.867188 24.300781 23.503906 C 24.621094 23.140625 24.90625 22.753906 25.15625 22.339844 C 25.40625 21.925781 25.613281 21.492188 25.785156 21.042969 C 25.957031 20.589844 26.085938 20.125 26.175781 19.652344 C 26.261719 19.175781 26.304688 18.695312 26.308594 18.214844 L 26.308594 12.210938 C 26.308594 11.945312 26.257812 11.6875 26.152344 11.441406 C 26.050781 11.199219 25.90625 10.980469 25.71875 10.792969 C 25.53125 10.605469 25.316406 10.460938 25.070312 10.359375 C 24.824219 10.257812 24.570312 10.207031 24.304688 10.207031 Z M 24.304688 18.214844 C 24.300781 18.605469 24.253906 18.992188 24.175781 19.371094 C 24.09375 19.753906 23.976562 20.125 23.820312 20.484375 C 23.667969 20.84375 23.480469 21.183594 23.261719 21.507812 C 23.042969 21.828125 22.792969 22.125 22.515625 22.402344 C 22.234375 22.675781 21.933594 22.917969 21.609375 23.132812 C 21.28125 23.347656 20.9375 23.53125 20.578125 23.679688 C 20.214844 23.828125 19.84375 23.9375 19.460938 24.015625 C 19.078125 24.089844 18.691406 24.128906 18.300781 24.128906 C 17.910156 24.128906 17.523438 24.089844 17.140625 24.015625 C 16.757812 23.9375 16.386719 23.828125 16.023438 23.679688 C 15.664062 23.53125 15.320312 23.347656 14.992188 23.132812 C 14.667969 22.917969 14.363281 22.675781 14.085938 22.402344 C 13.808594 22.125 13.558594 21.828125 13.339844 21.507812 C 13.121094 21.183594 12.933594 20.84375 12.777344 20.484375 C 12.625 20.125 12.507812 19.753906 12.425781 19.371094 C 12.347656 18.992188 12.300781 18.605469 12.296875 18.214844 L 12.296875 12.210938 L 24.304688 12.210938 Z M 24.304688 18.214844 " fill-opacity="1" fill-rule="nonzero"/></svg>