<?xml version="1.0" encoding="UTF-8"?>
<svg width="16px" height="20px" viewBox="0 0 16 20" version="1.1" xmlns="http://www.w3.org/2000/svg" xmlns:xlink="http://www.w3.org/1999/xlink">
    <title>plan-ssd</title>
    <g id="MINECRAFT" stroke="none" stroke-width="1" fill="none" fill-rule="evenodd">
        <g id="Desktop-HD" transform="translate(-373.000000, -1083.000000)">
            <g id="Banner" transform="translate(302.000000, 183.000000)">
                <g id="10-Plans" transform="translate(46.000000, 761.000000)">
                    <g id="plan-ssd" transform="translate(25.000000, 139.000000)">
                        <path d="M6.875,5 C6.70241102,5 6.5625,5.13991102 6.5625,5.3125 L6.5625,9.6875 C6.5625,9.86008898 6.70241102,10 6.875,10 C7.04758898,10 7.1875,9.86008898 7.1875,9.6875 L7.1875,5.3125 C7.1875,5.13991102 7.04758898,5 6.875,5 Z M5.9375,12.5 L9.6875,12.5 L9.6875,4.375 L5.9375,4.375 L5.9375,12.5 Z M5.3125,11.875 L5.3125,11.25 L4.6875,11.25 C4.51491102,11.25 4.375,11.110089 4.375,10.9375 C4.375,10.764911 4.51491102,10.625 4.6875,10.625 L5.3125,10.625 L5.3125,10 L4.6875,10 C4.51491102,10 4.375,9.86008898 4.375,9.6875 C4.375,9.51491102 4.51491102,9.375 4.6875,9.375 L5.3125,9.375 L5.3125,8.75 L4.6875,8.75 C4.51491102,8.75 4.375,8.61008898 4.375,8.4375 C4.375,8.26491102 4.51491102,8.125 4.6875,8.125 L5.3125,8.125 L5.3125,7.5 L4.6875,7.5 C4.51491102,7.5 4.375,7.36008898 4.375,7.1875 C4.375,7.01491102 4.51491102,6.875 4.6875,6.875 L5.3125,6.875 L5.3125,6.25 L4.6875,6.25 C4.51491102,6.25 4.375,6.11008898 4.375,5.9375 C4.375,5.76491102 4.51491102,5.625 4.6875,5.625 L5.3125,5.625 L5.3125,5 L4.6875,5 C4.51491102,5 4.375,4.86008898 4.375,4.6875 C4.375,4.51491102 4.51491102,4.375 4.6875,4.375 L5.3125,4.375 L5.3125,4.0625 C5.3125,3.88991102 5.45241102,3.75 5.625,3.75 L10,3.75 C10.172589,3.75 10.3125,3.88991102 10.3125,4.0625 L10.3125,4.375 L10.9375,4.375 C11.110089,4.375 11.25,4.51491102 11.25,4.6875 C11.25,4.86008898 11.110089,5 10.9375,5 L10.3125,5 L10.3125,5.625 L10.9375,5.625 C11.110089,5.625 11.25,5.76491102 11.25,5.9375 C11.25,6.11008898 11.110089,6.25 10.9375,6.25 L10.3125,6.25 L10.3125,6.875 L10.9375,6.875 C11.110089,6.875 11.25,7.01491102 11.25,7.1875 C11.25,7.36008898 11.110089,7.5 10.9375,7.5 L10.3125,7.5 L10.3125,8.125 L10.9375,8.125 C11.110089,8.125 11.25,8.26491102 11.25,8.4375 C11.25,8.61008898 11.110089,8.75 10.9375,8.75 L10.3125,8.75 L10.3125,9.375 L10.9375,9.375 C11.110089,9.375 11.25,9.51491102 11.25,9.6875 C11.25,9.86008898 11.110089,10 10.9375,10 L10.3125,10 L10.3125,10.625 L10.9375,10.625 C11.110089,10.625 11.25,10.764911 11.25,10.9375 C11.25,11.110089 11.110089,11.25 10.9375,11.25 L10.3125,11.25 L10.3125,11.875 L10.9375,11.875 C11.110089,11.875 11.25,12.014911 11.25,12.1875 C11.25,12.360089 11.110089,12.5 10.9375,12.5 L10.3125,12.5 L10.3125,12.8125 C10.3125,12.985089 10.172589,13.125 10,13.125 L5.625,13.125 C5.45241102,13.125 5.3125,12.985089 5.3125,12.8125 L5.3125,12.5 L4.6875,12.5 C4.51491102,12.5 4.375,12.360089 4.375,12.1875 C4.375,12.014911 4.51491102,11.875 4.6875,11.875 L5.3125,11.875 Z M2.8125,17.5 L2.5,17.5 C2.32741102,17.5 2.1875,17.639911 2.1875,17.8125 C2.1875,17.985089 2.32741102,18.125 2.5,18.125 L2.8125,18.125 C2.98508898,18.125 3.125,17.985089 3.125,17.8125 C3.125,17.639911 2.98508898,17.5 2.8125,17.5 Z M9.375,17.5 L6.875,17.5 C6.70241102,17.5 6.5625,17.639911 6.5625,17.8125 C6.5625,17.985089 6.70241102,18.125 6.875,18.125 L9.375,18.125 C9.54758898,18.125 9.6875,17.985089 9.6875,17.8125 C9.6875,17.639911 9.54758898,17.5 9.375,17.5 Z M13.125,17.5 L10.625,17.5 C10.452411,17.5 10.3125,17.639911 10.3125,17.8125 C10.3125,17.985089 10.452411,18.125 10.625,18.125 L12.8125,18.125 L12.8125,18.4375 C12.8125,18.610089 12.952411,18.75 13.125,18.75 C13.297589,18.75 13.4375,18.610089 13.4375,18.4375 L13.4375,17.8125 C13.4375,17.639911 13.297589,17.5 13.125,17.5 Z M13.75,2.18750077 C13.8328939,2.18758563 13.9124046,2.15463425 13.9709375,2.0959375 L14.2834375,1.7834375 C14.4054579,1.66141709 14.4054579,1.46358291 14.2834375,1.3415625 C14.1614171,1.21954209 13.9635829,1.21954209 13.8415625,1.3415625 L13.5290625,1.6540625 C13.4393945,1.74332409 13.4124685,1.87788 13.460883,1.99477322 C13.5092975,2.11166645 13.6234776,2.18777948 13.75,2.18750077 L13.75,2.18750077 Z M1.6540625,2.0959375 C1.71254223,2.15475289 1.79205949,2.18782339 1.875,2.18782339 C1.95794051,2.18782339 2.03745777,2.15475289 2.0959375,2.0959375 C2.15459886,2.0373758 2.18756286,1.95788925 2.18756286,1.875 C2.18756286,1.79211075 2.15459886,1.7126242 2.0959375,1.6540625 L1.7834375,1.3415625 C1.70450413,1.26262913 1.58945625,1.23180214 1.48163126,1.26069376 C1.37380628,1.28958538 1.28958538,1.37380628 1.26069376,1.48163126 C1.23180214,1.58945625 1.26262913,1.70450413 1.3415625,1.7834375 L1.6540625,2.0959375 L1.6540625,2.0959375 Z M1.5625,15.6250008 C1.64539392,15.6250856 1.72490459,15.5921342 1.7834375,15.5334375 L2.0959375,15.2209375 C2.17487087,15.1420041 2.20569787,15.0269562 2.17680625,14.9191313 C2.14791463,14.8113063 2.06369373,14.7270854 1.95586874,14.6981937 C1.84804376,14.6693021 1.73299586,14.7001291 1.6540625,14.7790625 L1.3415625,15.0915625 C1.25189447,15.1808241 1.22496854,15.31538 1.27338302,15.4322732 C1.32179749,15.5491664 1.43597763,15.6252795 1.5625,15.6250008 L1.5625,15.6250008 Z M13.8415625,15.5334375 C13.9000422,15.5922529 13.9795595,15.6253234 14.0625,15.6253234 C14.1454405,15.6253234 14.2249578,15.5922529 14.2834375,15.5334375 C14.3420989,15.4748758 14.3750629,15.3953893 14.3750629,15.3125 C14.3750629,15.2296107 14.3420989,15.1501242 14.2834375,15.0915625 L13.9709375,14.7790625 C13.8920041,14.7001291 13.7769562,14.6693021 13.6691313,14.6981938 C13.5613063,14.7270854 13.4770854,14.8113063 13.4481938,14.9191313 C13.4193021,15.0269562 13.4501291,15.1420041 13.5290625,15.2209375 L13.8415625,15.5334375 L13.8415625,15.5334375 Z M15,1.25 C15,0.9053125 14.7196875,0.625 14.375,0.625 L1.25,0.625 C0.9053125,0.625 0.625,0.9053125 0.625,1.25 L0.625,18.75 C0.625,19.0946875 0.9053125,19.375 1.25,19.375 L14.375,19.375 C14.7196875,19.375 15,19.0946875 15,18.75 L15,1.25 Z M15.625,1.25 L15.625,18.75 C15.625,19.439375 15.064375,20 14.375,20 L1.25,20 C0.560625,20 0,19.439375 0,18.75 L0,1.25 C0,0.560625 0.560625,0 1.25,0 L14.375,0 C15.064375,0 15.625,0.560625 15.625,1.25 Z M14.375,16.5625 C14.375,16.735089 14.235089,16.875 14.0625,16.875 L1.5625,16.875 C1.38991102,16.875 1.25,16.735089 1.25,16.5625 C1.25,16.389911 1.38991102,16.25 1.5625,16.25 L14.0625,16.25 C14.235089,16.25 14.375,16.389911 14.375,16.5625 Z" id="Shape" fill="#FFFFFF"></path>
                        <rect id="Rectangle" x="0" y="2" width="16" height="16"></rect>
                    </g>
                </g>
            </g>
        </g>
    </g>
</svg>