<?xml version="1.0" encoding="UTF-8"?>
<svg width="17px" height="18px" viewBox="0 0 17 18" version="1.1" xmlns="http://www.w3.org/2000/svg" xmlns:xlink="http://www.w3.org/1999/xlink">
    <title>plan-slots</title>
    <g id="MINECRAFT" stroke="none" stroke-width="1" fill="none" fill-rule="evenodd">
        <g id="Desktop-HD" transform="translate(-373.000000, -1050.000000)" fill="#FFFFFF" fill-rule="nonzero">
            <g id="Banner" transform="translate(302.000000, 183.000000)">
                <g id="10-Plans" transform="translate(46.000000, 761.000000)">
                    <g id="plan-slots" transform="translate(25.000000, 106.000000)">
                        <path d="M8.07691058,18 C4.8062431,18 2.33321411,17.5577859 0.834582061,17.1867839 C0.459765094,17.0942718 0.167604964,16.7922564 0.051885392,16.3789723 C-0.0778222607,15.916094 0.0398047773,15.4293724 0.358351513,15.1092361 C1.44274564,14.0197554 2.90958659,13.2799767 4.71754596,12.9105642 L5.2227064,12.8101043 C5.3451021,12.7884864 5.42553356,12.6927952 5.4207649,12.5815264 C5.40773055,12.2763319 5.40773055,11.9546061 5.40932011,11.6242966 C5.40932011,11.3181484 5.21825565,10.9525509 5.01606431,10.5656533 C4.77445201,10.102775 4.50136654,9.58044737 4.45622319,8.98468232 C4.14689587,8.32692464 3.97681353,7.6850625 3.97681353,7.17163638 C3.97681353,6.86262697 4.04039571,6.6159281 4.17042128,6.42327409 C4.13958392,6.25128428 4.1100182,6.07484373 4.08013458,5.89554197 C4.0486614,5.70861035 4.0168703,5.5178638 3.9819001,5.32489188 C3.65858471,3.52964895 4.25530349,2.34225169 5.85916405,1.59452522 C5.89349843,1.46704295 5.90875815,1.16661713 5.91829548,0.978731783 C5.94531791,0.451953399 5.96153136,0.134042486 6.23843177,0.0249990423 C6.3792663,-0.0299995457 6.53567847,0.00687812024 6.65743835,0.124505158 C7.24620936,0.694837337 8.69302193,1.06170653 9.55773962,1.28106506 C9.84131615,1.35291293 10.0654433,1.41013689 10.2062779,1.46004891 C11.8495594,2.04341543 12.5648589,3.41583685 12.2215152,5.32489188 C12.1868629,5.51722798 12.1550718,5.70670289 12.1235986,5.89331659 C12.093715,6.07325417 12.0638313,6.25033055 12.032994,6.423592 C12.1630196,6.6159281 12.2262838,6.86262697 12.2262838,7.17163638 C12.2262838,7.6850625 12.0565194,8.32692464 11.7471921,8.98468232 C11.7014129,9.58903096 11.4229229,10.1288437 11.1762241,10.6072996 C10.9797551,10.9887927 10.7940952,11.3486679 10.7940952,11.6255683 C10.7956847,11.9380747 10.7960026,12.2709274 10.7826504,12.5812085 C10.7778817,12.6927952 10.8583132,12.7884864 10.9740327,12.8088327 L10.987385,12.8116939 L11.4388185,12.9118358 C13.2706212,13.2392841 14.7606696,13.9771553 15.8542832,15.102242 C16.1683791,15.4255574 16.2812375,15.912279 16.1483508,16.3722961 C16.02977,16.7827191 15.7360203,17.0818733 15.3621571,17.1724779 C13.8063011,17.5501561 11.2795451,18 8.07691058,18 Z M6.56174717,0.856336081 C6.55856806,0.910698847 6.55570686,0.964107881 6.55348148,1.0111587 C6.52518741,1.5646416 6.50293365,2.00145119 6.1926526,2.14101408 C4.8062431,2.76411947 4.33255584,3.6825641 4.60786669,5.21235142 C4.6431548,5.40818454 4.67526381,5.60115646 4.7070549,5.79063137 C4.7448863,6.01634812 4.78176396,6.23697829 4.82182074,6.45093234 L4.8526581,6.61497437 L4.73503106,6.73355514 C4.65269213,6.81621198 4.61295327,6.9595898 4.61295327,7.17163638 C4.61295327,7.59986238 4.77445201,8.18100353 5.05612108,8.7656417 L5.08409724,8.8241373 L5.08727635,8.88867322 C5.10984803,9.37189781 5.34859912,9.82937161 5.57972036,10.2715857 C5.81910727,10.7293774 6.04514193,11.1620542 6.04514193,11.6255683 C6.04355238,11.9495195 6.04355238,12.2629797 6.0559509,12.5541861 C6.07438974,12.9805046 5.76665197,13.3591365 5.34033344,13.4347993 L4.84343868,13.5339875 C3.16137204,13.8770134 1.80357453,14.5582965 0.809467099,15.5574905 C0.654326573,15.7132668 0.597420519,15.9685493 0.664181811,16.2079362 C0.717272934,16.3974111 0.838079081,16.5328411 0.987179299,16.5697188 C2.45179488,16.9321372 4.87046111,17.3641782 8.07691058,17.3641782 C11.2165988,17.3641782 13.6902636,16.9238716 15.212421,16.554777 C15.3615213,16.5185351 15.4829632,16.3843767 15.537326,16.1961735 C15.6059947,15.9583761 15.5513141,15.7027757 15.398081,15.5454098 C14.3992049,14.5176039 13.0251939,13.8410894 11.3138795,13.5349412 L10.8557699,13.4335276 C10.4332663,13.3550036 10.1290255,12.9782792 10.1474644,12.5541861 C10.1601808,12.2575752 10.159545,11.9336239 10.1582733,11.6271578 C10.1582733,11.1944811 10.3782677,10.7678446 10.6112964,10.3160932 C10.84814,9.85671195 11.0929314,9.38143514 11.1161389,8.88867322 L11.1190001,8.8241373 L11.1472942,8.7656417 C11.4289633,8.18100353 11.590462,7.59986238 11.590462,7.17163638 C11.590462,6.9595898 11.5507231,6.81621198 11.4683842,6.73355514 L11.3507572,6.61497437 L11.3815945,6.45093234 C11.4216513,6.23602456 11.4588469,6.01475856 11.4966783,5.78840599 C11.5281515,5.59956691 11.5602605,5.40723081 11.5955486,5.21235142 C11.8858012,3.60054309 11.3469422,2.53935646 9.99359548,2.05899307 C9.88041919,2.01893629 9.65851737,1.96234815 9.40100953,1.89717641 C8.55536651,1.68258655 7.33903935,1.37421296 6.56174717,0.856336081 Z" id="Shape"></path>
                    </g>
                </g>
            </g>
        </g>
    </g>
</svg>