<svg xmlns="http://www.w3.org/2000/svg" xmlns:xlink="http://www.w3.org/1999/xlink" width="48" zoomAndPan="magnify" viewBox="0 0 36 36.000001" height="48" preserveAspectRatio="xMidYMid meet" version="1.0"><defs><clipPath id="e4e1d1bcb4"><path d="M 0.488281 0 L 35.511719 0 L 35.511719 35.027344 L 0.488281 35.027344 Z M 0.488281 0 " clip-rule="nonzero"/></clipPath><clipPath id="0c83dc32c8"><path d="M 5.652344 5.792969 L 30.464844 5.792969 L 30.464844 29.144531 L 5.652344 29.144531 Z M 5.652344 5.792969 " clip-rule="nonzero"/></clipPath></defs><g clip-path="url(#e4e1d1bcb4)"><path fill="#ffffff" d="M 0.488281 0 L 35.511719 0 L 35.511719 35.027344 L 0.488281 35.027344 Z M 0.488281 0 " fill-opacity="1" fill-rule="nonzero"/><path fill="#872db5" d="M 0.488281 0 L 35.511719 0 L 35.511719 35.027344 L 0.488281 35.027344 Z M 0.488281 0 " fill-opacity="1" fill-rule="nonzero"/></g><g clip-path="url(#0c83dc32c8)"><path fill="#ffffff" d="M 30.320312 14.75 L 20.910156 14.75 L 18 5.792969 L 15.082031 14.75 L 5.671875 14.742188 L 13.292969 20.285156 L 10.378906 29.234375 L 18 23.699219 L 25.613281 29.234375 L 22.707031 20.285156 Z M 30.320312 14.75 " fill-opacity="1" fill-rule="nonzero"/></g><path fill="#872db5" d="M 23.363281 22.3125 L 22.707031 20.285156 L 18 23.699219 Z M 23.363281 22.3125 " fill-opacity="1" fill-rule="nonzero"/></svg>