<svg xmlns="http://www.w3.org/2000/svg" xmlns:xlink="http://www.w3.org/1999/xlink" width="48" zoomAndPan="magnify" viewBox="0 0 36 36.000001" height="48" preserveAspectRatio="xMidYMid meet" version="1.0"><path fill="#872db5" d="M 11.691406 15.496094 L 10.722656 15.496094 C 9.382812 15.449219 8.09375 15.667969 6.847656 16.15625 C 5.601562 16.644531 4.503906 17.359375 3.554688 18.304688 L 3.289062 18.617188 L 3.289062 27.84375 L 7.835938 27.84375 L 7.835938 22.605469 L 8.449219 21.914062 L 8.726562 21.59375 C 10.203125 20.078125 11.953125 19.015625 13.976562 18.40625 C 12.960938 17.632812 12.203125 16.664062 11.691406 15.496094 Z M 33.242188 18.273438 C 32.296875 17.328125 31.199219 16.613281 29.953125 16.125 C 28.707031 15.636719 27.414062 15.414062 26.078125 15.464844 C 25.671875 15.464844 25.265625 15.488281 24.863281 15.53125 C 24.347656 16.625 23.601562 17.535156 22.636719 18.261719 C 24.800781 18.859375 26.660156 19.976562 28.207031 21.605469 L 28.484375 21.914062 L 29.089844 22.609375 L 29.089844 27.855469 L 33.476562 27.855469 L 33.476562 18.582031 Z M 10.6875 13.324219 L 11.035156 13.324219 C 10.953125 12.636719 10.972656 11.949219 11.089844 11.265625 C 11.210938 10.582031 11.421875 9.929688 11.730469 9.308594 C 12.039062 8.683594 12.425781 8.121094 12.898438 7.609375 C 13.371094 7.101562 13.902344 6.667969 14.5 6.316406 C 14.390625 6.148438 14.273438 5.992188 14.148438 5.84375 C 14.019531 5.695312 13.882812 5.554688 13.734375 5.421875 C 13.589844 5.292969 13.4375 5.171875 13.273438 5.058594 C 13.113281 4.949219 12.945312 4.847656 12.769531 4.757812 C 12.59375 4.667969 12.414062 4.589844 12.230469 4.523438 C 12.042969 4.457031 11.855469 4.402344 11.664062 4.359375 C 11.472656 4.316406 11.277344 4.289062 11.082031 4.269531 C 10.886719 4.253906 10.691406 4.25 10.496094 4.257812 C 10.296875 4.265625 10.101562 4.285156 9.910156 4.320312 C 9.714844 4.355469 9.527344 4.398438 9.335938 4.457031 C 9.148438 4.515625 8.96875 4.585938 8.789062 4.667969 C 8.609375 4.75 8.4375 4.84375 8.269531 4.945312 C 8.105469 5.050781 7.945312 5.164062 7.792969 5.289062 C 7.640625 5.414062 7.496094 5.550781 7.363281 5.691406 C 7.230469 5.835938 7.105469 5.988281 6.988281 6.148438 C 6.875 6.304688 6.769531 6.472656 6.675781 6.644531 C 6.582031 6.816406 6.5 6.996094 6.429688 7.179688 C 6.359375 7.363281 6.304688 7.550781 6.257812 7.742188 C 6.210938 7.933594 6.175781 8.125 6.15625 8.320312 C 6.132812 8.515625 6.125 8.710938 6.128906 8.910156 C 6.132812 9.105469 6.152344 9.300781 6.179688 9.496094 C 6.210938 9.6875 6.253906 9.878906 6.304688 10.070312 C 6.359375 10.257812 6.425781 10.441406 6.503906 10.625 C 6.582031 10.804688 6.671875 10.976562 6.773438 11.148438 C 6.875 11.316406 6.984375 11.476562 7.105469 11.632812 C 7.226562 11.785156 7.359375 11.933594 7.5 12.070312 C 7.640625 12.207031 7.789062 12.335938 7.945312 12.453125 C 8.101562 12.570312 8.265625 12.679688 8.4375 12.773438 C 8.609375 12.871094 8.785156 12.957031 8.96875 13.03125 C 9.148438 13.105469 9.335938 13.167969 9.523438 13.21875 C 9.714844 13.269531 9.90625 13.304688 10.101562 13.332031 C 10.296875 13.355469 10.492188 13.371094 10.6875 13.367188 Z M 25.542969 12.488281 C 25.558594 12.746094 25.558594 13 25.542969 13.257812 C 25.757812 13.289062 25.972656 13.308594 26.191406 13.3125 L 26.402344 13.3125 C 26.597656 13.300781 26.789062 13.28125 26.984375 13.246094 C 27.175781 13.207031 27.367188 13.160156 27.550781 13.101562 C 27.738281 13.042969 27.921875 12.96875 28.097656 12.886719 C 28.273438 12.804688 28.445312 12.707031 28.613281 12.601562 C 28.777344 12.496094 28.933594 12.382812 29.085938 12.257812 C 29.234375 12.128906 29.375 11.996094 29.507812 11.851562 C 29.640625 11.707031 29.765625 11.554688 29.878906 11.394531 C 29.992188 11.234375 30.09375 11.070312 30.1875 10.894531 C 30.277344 10.722656 30.359375 10.542969 30.425781 10.363281 C 30.496094 10.179688 30.550781 9.992188 30.597656 9.800781 C 30.640625 9.609375 30.671875 9.417969 30.691406 9.222656 C 30.710938 9.027344 30.71875 8.832031 30.714844 8.636719 C 30.710938 8.441406 30.691406 8.246094 30.660156 8.050781 C 30.628906 7.859375 30.585938 7.667969 30.53125 7.480469 C 30.476562 7.289062 30.410156 7.105469 30.332031 6.929688 C 30.253906 6.75 30.164062 6.574219 30.0625 6.40625 C 29.960938 6.238281 29.847656 6.078125 29.726562 5.925781 C 29.605469 5.773438 29.472656 5.628906 29.332031 5.492188 C 29.191406 5.355469 29.042969 5.226562 28.886719 5.109375 C 28.730469 4.992188 28.566406 4.886719 28.394531 4.789062 C 28.222656 4.695312 28.046875 4.609375 27.867188 4.535156 C 27.683594 4.460938 27.5 4.402344 27.308594 4.351562 C 27.121094 4.300781 26.929688 4.265625 26.734375 4.242188 C 26.539062 4.214844 26.34375 4.203125 26.148438 4.203125 C 25.953125 4.203125 25.757812 4.21875 25.5625 4.242188 C 25.367188 4.269531 25.175781 4.308594 24.988281 4.355469 C 24.796875 4.40625 24.613281 4.46875 24.429688 4.542969 C 24.25 4.617188 24.074219 4.703125 23.902344 4.800781 C 23.734375 4.898438 23.570312 5.003906 23.414062 5.121094 C 23.257812 5.242188 23.109375 5.367188 22.96875 5.503906 C 22.828125 5.644531 22.699219 5.789062 22.578125 5.941406 C 22.457031 6.097656 22.347656 6.257812 22.246094 6.425781 C 22.75 6.753906 23.207031 7.140625 23.613281 7.582031 C 24.023438 8.027344 24.371094 8.511719 24.660156 9.039062 C 24.945312 9.570312 25.164062 10.125 25.316406 10.710938 C 25.464844 11.292969 25.539062 11.886719 25.542969 12.488281 Z M 18.234375 17.480469 C 18.558594 17.480469 18.882812 17.449219 19.203125 17.386719 C 19.523438 17.320312 19.835938 17.226562 20.140625 17.101562 C 20.441406 16.976562 20.726562 16.824219 21 16.640625 C 21.273438 16.460938 21.523438 16.253906 21.753906 16.023438 C 21.988281 15.789062 22.191406 15.539062 22.375 15.265625 C 22.554688 14.996094 22.710938 14.707031 22.835938 14.40625 C 22.960938 14.105469 23.054688 13.792969 23.117188 13.472656 C 23.183594 13.152344 23.214844 12.828125 23.214844 12.5 C 23.214844 12.171875 23.183594 11.847656 23.117188 11.527344 C 23.054688 11.207031 22.960938 10.894531 22.835938 10.59375 C 22.710938 10.292969 22.554688 10.003906 22.375 9.730469 C 22.191406 9.460938 21.988281 9.207031 21.753906 8.976562 C 21.523438 8.746094 21.273438 8.539062 21 8.359375 C 20.726562 8.175781 20.441406 8.023438 20.140625 7.898438 C 19.835938 7.773438 19.523438 7.679688 19.203125 7.613281 C 18.882812 7.550781 18.558594 7.519531 18.234375 7.519531 C 17.90625 7.519531 17.582031 7.550781 17.261719 7.613281 C 16.941406 7.675781 16.628906 7.773438 16.328125 7.898438 C 16.023438 8.023438 15.738281 8.175781 15.464844 8.359375 C 15.195312 8.539062 14.941406 8.746094 14.710938 8.976562 C 14.480469 9.207031 14.273438 9.460938 14.089844 9.730469 C 13.910156 10.003906 13.757812 10.289062 13.632812 10.59375 C 13.503906 10.894531 13.410156 11.207031 13.347656 11.527344 C 13.285156 11.847656 13.25 12.171875 13.25 12.5 C 13.25 12.824219 13.285156 13.148438 13.347656 13.472656 C 13.410156 13.792969 13.503906 14.101562 13.632812 14.40625 C 13.757812 14.707031 13.910156 14.996094 14.089844 15.265625 C 14.273438 15.539062 14.480469 15.789062 14.710938 16.019531 C 14.941406 16.253906 15.195312 16.457031 15.464844 16.640625 C 15.738281 16.820312 16.023438 16.976562 16.328125 17.101562 C 16.628906 17.226562 16.941406 17.320312 17.261719 17.382812 C 17.582031 17.449219 17.90625 17.480469 18.234375 17.480469 Z M 18.234375 17.480469 " fill-opacity="1" fill-rule="nonzero"/><path fill="#872db5" d="M 18.5 20.132812 C 17.03125 20.074219 15.605469 20.304688 14.230469 20.828125 C 12.855469 21.351562 11.636719 22.121094 10.578125 23.140625 L 10.296875 23.453125 L 10.296875 30.507812 C 10.300781 30.742188 10.351562 30.964844 10.445312 31.175781 C 10.539062 31.386719 10.667969 31.574219 10.835938 31.734375 C 11 31.898438 11.195312 32.019531 11.410156 32.105469 C 11.625 32.1875 11.851562 32.230469 12.082031 32.226562 L 24.886719 32.226562 C 25.117188 32.230469 25.34375 32.191406 25.558594 32.105469 C 25.773438 32.019531 25.96875 31.898438 26.132812 31.738281 C 26.300781 31.574219 26.433594 31.390625 26.523438 31.175781 C 26.617188 30.964844 26.664062 30.742188 26.667969 30.507812 L 26.667969 23.476562 L 26.402344 23.140625 C 25.347656 22.117188 24.136719 21.34375 22.761719 20.820312 C 21.386719 20.300781 19.96875 20.070312 18.5 20.132812 Z M 18.5 20.132812 " fill-opacity="1" fill-rule="nonzero"/></svg>