<svg xmlns="http://www.w3.org/2000/svg" xmlns:xlink="http://www.w3.org/1999/xlink" width="48" zoomAndPan="magnify" viewBox="0 0 36 36.000001" height="48" preserveAspectRatio="xMidYMid meet" version="1.0"><defs><clipPath id="44ca9ecbf6"><path d="M 0.488281 4 L 35 4 L 35 33 L 0.488281 33 Z M 0.488281 4 " clip-rule="nonzero"/></clipPath></defs><g clip-path="url(#44ca9ecbf6)"><path fill="#872db5" d="M 32.820312 4.203125 L 2.640625 4.203125 C 2.355469 4.203125 2.082031 4.257812 1.816406 4.367188 C 1.550781 4.476562 1.320312 4.632812 1.117188 4.835938 C 0.914062 5.035156 0.761719 5.269531 0.652344 5.535156 C 0.542969 5.796875 0.488281 6.074219 0.488281 6.359375 L 0.488281 30.070312 C 0.488281 30.355469 0.542969 30.628906 0.652344 30.894531 C 0.761719 31.160156 0.914062 31.390625 1.117188 31.59375 C 1.320312 31.796875 1.550781 31.953125 1.816406 32.0625 C 2.082031 32.171875 2.355469 32.226562 2.640625 32.226562 L 32.820312 32.226562 C 33.105469 32.226562 33.378906 32.167969 33.644531 32.058594 C 33.90625 31.949219 34.140625 31.796875 34.34375 31.59375 C 34.542969 31.390625 34.699219 31.160156 34.808594 30.894531 C 34.917969 30.628906 34.972656 30.355469 34.972656 30.070312 L 34.972656 6.359375 C 34.972656 6.074219 34.917969 5.796875 34.808594 5.535156 C 34.699219 5.269531 34.542969 5.035156 34.34375 4.835938 C 34.140625 4.632812 33.90625 4.476562 33.644531 4.367188 C 33.378906 4.257812 33.105469 4.203125 32.820312 4.203125 Z M 5.660156 15.851562 L 5.660156 13.007812 L 16.4375 17.953125 L 16.4375 20.195312 L 5.660156 25.144531 L 5.660156 22.289062 L 12.675781 19.054688 Z M 23.550781 26.1875 L 16.652344 26.1875 L 16.652344 23.601562 L 23.550781 23.601562 Z M 2.640625 8.730469 L 2.640625 6.359375 L 32.820312 6.359375 L 32.820312 8.730469 Z M 2.640625 8.730469 " fill-opacity="1" fill-rule="nonzero"/></g></svg>